<svg width="36" height="36" viewBox="0 0 36 36" fill="none" xmlns="http://www.w3.org/2000/svg">
<path d="M17.2827 14.2803C15.4799 11.0917 13.553 8.40285 13.1649 7.8692C10.0654 9.34824 7.74406 12.2017 6.99976 15.6356C7.03069 15.6356 7.06752 15.6356 7.10987 15.6356C8.14697 15.6356 12.4441 15.5524 17.2827 14.2803Z" fill="#654DFB"/>
<path d="M25.4155 9.56963C23.4334 7.83206 20.8384 6.77655 18 6.77655C17.1272 6.77655 16.2779 6.87709 15.4614 7.06713C15.9188 7.68511 17.8446 10.3449 19.6021 13.5604C23.4006 12.1241 25.1021 9.99832 25.4155 9.56963Z" fill="#654DFB"/>
<path d="M21.2549 16.9367C21.3315 17.1165 21.4059 17.2958 21.4792 17.4741C22.3502 17.3669 23.2194 17.3253 24.0451 17.3253C26.605 17.3253 28.7473 17.726 29.253 17.828C29.2099 15.2378 28.2855 12.8583 26.766 10.9753C26.373 11.4846 24.4719 13.7367 20.5327 15.3594C20.7857 15.8786 21.0284 16.406 21.2549 16.9367Z" fill="#654DFB"/>
<path d="M18.7711 18.0526C18.8949 18.0129 19.0201 17.9764 19.1453 17.9396C18.8772 17.3382 18.5885 16.736 18.285 16.1427C13.2892 17.6258 8.44034 17.7418 7.04417 17.7418C6.91527 17.7418 6.81694 17.7411 6.74917 17.7396C6.74696 17.8324 6.74438 17.9252 6.74438 18.0173C6.74475 20.8722 7.8161 23.4804 9.57761 25.4651C10.0531 24.6796 13.1459 19.8694 18.7711 18.0526Z" fill="#654DFB"/>
<path d="M18 0C8.05884 0 0 8.05921 0 18C0 27.9408 8.05884 36 18 36C27.9412 36 36 27.9408 36 18C36 8.05921 27.9412 0 18 0ZM18 31.3058C10.6534 31.3058 4.67687 25.337 4.6765 18C4.67724 10.663 10.6534 4.69492 18 4.69418C25.3466 4.69492 31.3228 10.663 31.3231 18C31.3228 25.337 25.3466 31.3058 18 31.3058Z" fill="#654DFB"/>
<path d="M22.2175 19.3833C23.6174 23.2445 24.224 26.411 24.3742 27.2765C26.8388 25.5794 28.5951 22.9266 29.103 19.8588C28.6758 19.7284 26.8355 19.2136 24.4836 19.2136C23.7673 19.2136 23.0031 19.2625 22.2175 19.3833Z" fill="#654DFB"/>
<path d="M19.9553 19.9401C13.7895 22.0857 11.456 26.2879 11.1349 26.9188C13.0367 28.3842 15.4173 29.2581 18.0005 29.2581C19.541 29.2581 21.0101 28.9473 22.3485 28.3853C22.168 27.3382 21.5128 23.961 19.9679 19.9357C19.9635 19.9371 19.9594 19.9386 19.9553 19.9401Z" fill="#654DFB"/>
</svg>
